# xmcd
#
# Track frame offsets:
#	150
#	10492
#	29360
#	52490
#	68112
#	95355
#	113692
#	124657
#	147627
#	156110
#	186097
#	217807
#	237080
#	251587
#	280102
#	292485
#	305995
#	324585
#
# Disc length: 4383 seconds
#
# Revision: 1
# Processed by: cddbd v1.5.1PL0 Copyright (c) Steve Scherf et al.
# Submitted via: CDex 1.50Beta5
#
DISCID=19111d12
DTITLE=Various Artist - Tv-Classics/Tvドラマ＆シネマ編Cd-2
DYEAR=2003
DGENRE=Classical
TTITLE0=ヴェルディ/歌劇「リゴレット」〜女心の歌
TTITLE1=モーツアルト/セレナード第13番ト長調K.525「アイネクライネ・ナハトムジーク」〜第1楽章
TTITLE2=J.シュトラウス?/ワルツ「美しき青きドナウ」作品314より抜粋
TTITLE3=サティ/3つのグノシェンヌ〜第1曲
TTITLE4=ラフマニノフ/ヴォカリーズ
TTITLE5=ショパン/ワルツ第10番ロ長調作品69-2
TTITLE6=シューベルト/歌曲集「美しい水車小屋の娘」作品25d.795〜第1曲さすらい
TTITLE7=J.S.バッハ/ブランデンブルク協奏曲第3番ト長調BWV1048〜第1楽章
TTITLE8=岩代太郎/すばらしき日々へ
TTITLE9=エルガー/威風堂々
TTITLE10=ショパン/ポロネーズ第6番変イ長調「英雄」
TTITLE11=リスト/愛の夢
TTITLE12=J.S.バッハ/主よ人の望みの喜びを（カンタータ第147番「心と口と行いと生活で」BWV147より）
TTITLE13=ベートーヴェン/ピアノ・ソナタ第14番嬰ハ短調作品27-2「月光」〜第1楽章
TTITLE14=ラフマニノフ/パガニーニの主題による狂詩曲〜第18変奏
TTITLE15=ヘンデル/オンブラ・マイ・フ（歌劇「セルセ」より）
TTITLE16=ブラームス/弦楽六重奏曲第1番変ロ長調作品18〜第2楽章より抜粋
TTITLE17=ベートーヴェン/交響曲第9番ニ短調作品125「合唱つき」〜第4楽章より抜粋
EXTD=
EXTT0=
EXTT1=
EXTT2=
EXTT3=
EXTT4=
EXTT5=
EXTT6=
EXTT7=
EXTT8=
EXTT9=
EXTT10=
EXTT11=
EXTT12=
EXTT13=
EXTT14=
EXTT15=
EXTT16=
EXTT17=
PLAYORDER=
